<svg width="21" height="20" viewBox="0 0 21 20" fill="none" xmlns="http://www.w3.org/2000/svg">
    <path d="M5.40902 9.3375L9.54465 2.07625C9.67963 1.83922 9.87509 1.64226 10.1111 1.50548C10.3471 1.36871 10.6151 1.297 10.8879 1.2977C11.1607 1.2984 11.4284 1.37148 11.6636 1.50946C11.8989 1.64745 12.0934 1.84541 12.2271 2.08312L16.4384 9.56437H16.4315C16.9025 10.464 17.1477 11.4646 17.1459 12.48C17.1459 15.9531 14.3303 18.7687 10.8571 18.7687C7.38402 18.7687 4.5684 15.9531 4.5684 12.48C4.5684 11.3912 4.84465 10.3675 5.3309 9.475H5.32965L5.36902 9.40625L5.40902 9.3375Z" fill="url(#paint0_linear_387_2987)"/>
    <path d="M5.40902 9.3375L9.54465 2.07625C9.67963 1.83922 9.87509 1.64226 10.1111 1.50548C10.3471 1.36871 10.6151 1.297 10.8879 1.2977C11.1607 1.2984 11.4284 1.37148 11.6636 1.50946C11.8989 1.64745 12.0934 1.84541 12.2271 2.08312L16.4384 9.56437H16.4315C16.9025 10.464 17.1477 11.4646 17.1459 12.48C17.1459 15.9531 14.3303 18.7687 10.8571 18.7687C7.38402 18.7687 4.5684 15.9531 4.5684 12.48C4.5684 11.3912 4.84465 10.3675 5.3309 9.475H5.32965L5.36902 9.40625L5.40902 9.3375Z" fill="url(#paint1_radial_387_2987)"/>
    <path d="M5.40902 9.3375L9.54465 2.07625C9.67963 1.83922 9.87509 1.64226 10.1111 1.50548C10.3471 1.36871 10.6151 1.297 10.8879 1.2977C11.1607 1.2984 11.4284 1.37148 11.6636 1.50946C11.8989 1.64745 12.0934 1.84541 12.2271 2.08312L16.4384 9.56437H16.4315C16.9025 10.464 17.1477 11.4646 17.1459 12.48C17.1459 15.9531 14.3303 18.7687 10.8571 18.7687C7.38402 18.7687 4.5684 15.9531 4.5684 12.48C4.5684 11.3912 4.84465 10.3675 5.3309 9.475H5.32965L5.36902 9.40625L5.40902 9.3375Z" fill="url(#paint2_radial_387_2987)"/>
    <path d="M5.40902 9.3375L9.54465 2.07625C9.67963 1.83922 9.87509 1.64226 10.1111 1.50548C10.3471 1.36871 10.6151 1.297 10.8879 1.2977C11.1607 1.2984 11.4284 1.37148 11.6636 1.50946C11.8989 1.64745 12.0934 1.84541 12.2271 2.08312L16.4384 9.56437H16.4315C16.9025 10.464 17.1477 11.4646 17.1459 12.48C17.1459 15.9531 14.3303 18.7687 10.8571 18.7687C7.38402 18.7687 4.5684 15.9531 4.5684 12.48C4.5684 11.3912 4.84465 10.3675 5.3309 9.475H5.32965L5.36902 9.40625L5.40902 9.3375Z" fill="url(#paint3_radial_387_2987)"/>
    <path d="M5.40902 9.3375L9.54465 2.07625C9.67963 1.83922 9.87509 1.64226 10.1111 1.50548C10.3471 1.36871 10.6151 1.297 10.8879 1.2977C11.1607 1.2984 11.4284 1.37148 11.6636 1.50946C11.8989 1.64745 12.0934 1.84541 12.2271 2.08312L16.4384 9.56437H16.4315C16.9025 10.464 17.1477 11.4646 17.1459 12.48C17.1459 15.9531 14.3303 18.7687 10.8571 18.7687C7.38402 18.7687 4.5684 15.9531 4.5684 12.48C4.5684 11.3912 4.84465 10.3675 5.3309 9.475H5.32965L5.36902 9.40625L5.40902 9.3375Z" fill="url(#paint4_linear_387_2987)"/>
    <defs>
        <linearGradient id="paint0_linear_387_2987" x1="10.8571" y1="5.46875" x2="10.8571" y2="18.2812" gradientUnits="userSpaceOnUse">
            <stop stop-color="#FD4452"/>
            <stop offset="1" stop-color="#FF1F5D"/>
        </linearGradient>
        <radialGradient id="paint1_radial_387_2987" cx="0" cy="0" r="1" gradientUnits="userSpaceOnUse" gradientTransform="translate(10.8571 7.97937) rotate(90) scale(10.7904 9.49725)">
            <stop offset="0.901" stop-color="#FE7C86" stop-opacity="0"/>
            <stop offset="1" stop-color="#FE7C86"/>
        </radialGradient>
        <radialGradient id="paint2_radial_387_2987" cx="0" cy="0" r="1" gradientUnits="userSpaceOnUse" gradientTransform="translate(15.4684 11.3744) rotate(143.778) scale(6.415 4.02611)">
            <stop stop-color="#FEB4BA"/>
            <stop offset="1" stop-color="#FEB4BA" stop-opacity="0"/>
        </radialGradient>
        <radialGradient id="paint3_radial_387_2987" cx="0" cy="0" r="1" gradientUnits="userSpaceOnUse" gradientTransform="translate(13.5234 2.475) rotate(61.928) scale(9.52631 4.69903)">
            <stop stop-color="#FEA2A9"/>
            <stop offset="1" stop-color="#FEA2A9" stop-opacity="0"/>
        </radialGradient>
        <linearGradient id="paint4_linear_387_2987" x1="6.67777" y1="6.71875" x2="10.8571" y2="8.125" gradientUnits="userSpaceOnUse">
            <stop offset="0.032" stop-color="#E43D4A"/>
            <stop offset="1" stop-color="#FD4452" stop-opacity="0"/>
        </linearGradient>
    </defs>
</svg>
