<svg width="28" height="28" viewBox="0 0 28 28" fill="none" xmlns="http://www.w3.org/2000/svg">
    <path fill-rule="evenodd" clip-rule="evenodd" d="M18.9014 20.6457C18.4184 20.6457 18.0217 20.2537 18.0217 19.7707C18.0217 19.2877 18.4079 18.8957 18.8909 18.8957H18.9014C19.3844 18.8957 19.7764 19.2877 19.7764 19.7707C19.7764 20.2537 19.3844 20.6457 18.9014 20.6457Z" fill="#212121"/>
    <path fill-rule="evenodd" clip-rule="evenodd" d="M13.7243 20.6457C13.2413 20.6457 12.8447 20.2537 12.8447 19.7707C12.8447 19.2877 13.2308 18.8957 13.7138 18.8957H13.7243C14.2073 18.8957 14.5993 19.2877 14.5993 19.7707C14.5993 20.2537 14.2073 20.6457 13.7243 20.6457Z" fill="#212121"/>
    <path fill-rule="evenodd" clip-rule="evenodd" d="M8.53638 20.6457C8.05338 20.6457 7.65555 20.2537 7.65555 19.7707C7.65555 19.2877 8.04288 18.8957 8.52588 18.8957H8.53638C9.01938 18.8957 9.41138 19.2877 9.41138 19.7707C9.41138 20.2537 9.01938 20.6457 8.53638 20.6457Z" fill="#212121"/>
    <path fill-rule="evenodd" clip-rule="evenodd" d="M18.9014 16.1112C18.4184 16.1112 18.0217 15.7192 18.0217 15.2362C18.0217 14.7532 18.4079 14.3612 18.8909 14.3612H18.9014C19.3844 14.3612 19.7764 14.7532 19.7764 15.2362C19.7764 15.7192 19.3844 16.1112 18.9014 16.1112Z" fill="#212121"/>
    <path fill-rule="evenodd" clip-rule="evenodd" d="M13.7243 16.1112C13.2413 16.1112 12.8447 15.7192 12.8447 15.2362C12.8447 14.7532 13.2308 14.3612 13.7138 14.3612H13.7243C14.2073 14.3612 14.5993 14.7532 14.5993 15.2362C14.5993 15.7192 14.2073 16.1112 13.7243 16.1112Z" fill="#212121"/>
    <path fill-rule="evenodd" clip-rule="evenodd" d="M8.53638 16.1112C8.05338 16.1112 7.65555 15.7192 7.65555 15.2362C7.65555 14.7532 8.04288 14.3612 8.52588 14.3612H8.53638C9.01938 14.3612 9.41138 14.7532 9.41138 15.2362C9.41138 15.7192 9.01938 16.1112 8.53638 16.1112Z" fill="#212121"/>
    <path fill-rule="evenodd" clip-rule="evenodd" d="M24.1109 11.555H3.31625C2.83325 11.555 2.44125 11.163 2.44125 10.68C2.44125 10.197 2.83325 9.80502 3.31625 9.80502H24.1109C24.5939 9.80502 24.9859 10.197 24.9859 10.68C24.9859 11.163 24.5939 11.555 24.1109 11.555Z" fill="#212121"/>
    <path fill-rule="evenodd" clip-rule="evenodd" d="M18.4258 6.75616C17.9428 6.75616 17.5508 6.36416 17.5508 5.88116V2.04166C17.5508 1.55866 17.9428 1.16666 18.4258 1.16666C18.9088 1.16666 19.3008 1.55866 19.3008 2.04166V5.88116C19.3008 6.36416 18.9088 6.75616 18.4258 6.75616Z" fill="#212121"/>
    <path fill-rule="evenodd" clip-rule="evenodd" d="M9.00119 6.75616C8.51819 6.75616 8.12619 6.36416 8.12619 5.88116V2.04166C8.12619 1.55866 8.51819 1.16666 9.00119 1.16666C9.48419 1.16666 9.87619 1.55866 9.87619 2.04166V5.88116C9.87619 6.36416 9.48419 6.75616 9.00119 6.75616Z" fill="#212121"/>
    <mask id="mask0_387_185" style="mask-type:luminance" maskUnits="userSpaceOnUse" x="2" y="3" width="24" height="24">
        <path fill-rule="evenodd" clip-rule="evenodd" d="M2.33334 3.00895H25.0833V26.25H2.33334V3.00895Z" fill="white"/>
    </mask>
    <g mask="url(#mask0_387_185)">
        <path fill-rule="evenodd" clip-rule="evenodd" d="M8.77451 4.75895C5.74934 4.75895 4.08334 6.37245 4.08334 9.30195V19.8591C4.08334 22.8528 5.74934 24.5001 8.77451 24.5001H18.6422C21.6673 24.5001 23.3333 22.8831 23.3333 19.9478V9.30195C23.338 7.86112 22.9507 6.74112 22.1818 5.97112C21.3908 5.17778 20.1717 4.75895 18.6527 4.75895H8.77451ZM18.6422 26.2501H8.77451C4.80201 26.2501 2.33334 23.8013 2.33334 19.8591V9.30195C2.33334 5.41928 4.80201 3.00895 8.77451 3.00895H18.6527C20.6465 3.00895 22.295 3.60628 23.4208 4.73445C24.514 5.83228 25.0892 7.41078 25.0833 9.30428V19.9478C25.0833 23.8351 22.6147 26.2501 18.6422 26.2501Z" fill="#212121"/>
    </g>
</svg>
