<svg width="21" height="20" viewBox="0 0 21 20" fill="none" xmlns="http://www.w3.org/2000/svg">
    <g filter="url(#filter0_i_387_3419)">
        <path d="M13.2223 19.0644C13.3514 19.1306 13.5014 19.1428 13.6395 19.0984C13.7079 19.0764 13.7712 19.0412 13.826 18.9947C13.8807 18.9482 13.9258 18.8914 13.9586 18.8275C13.9914 18.7636 14.0112 18.6939 14.0171 18.6223C14.0229 18.5507 14.0146 18.4787 13.9926 18.4103C13.9706 18.342 13.9354 18.2786 13.8889 18.2238C13.8424 18.1691 13.7856 18.124 13.7217 18.0913L13.2223 19.0644ZM13.7217 18.0913C12.0286 17.2225 11.3392 16.0706 11.0486 14.7981C10.7423 13.4588 10.8736 12.0231 10.8736 10.4919H9.77982C9.77982 11.8831 9.63919 13.5425 9.98232 15.0419C10.3404 16.6081 11.2236 18.0388 13.2223 19.0644L13.7217 18.0913Z" fill="url(#paint0_linear_387_3419)"/>
        <path d="M13.2223 19.0644C13.3514 19.1306 13.5014 19.1428 13.6395 19.0984C13.7079 19.0764 13.7712 19.0412 13.826 18.9947C13.8807 18.9482 13.9258 18.8914 13.9586 18.8275C13.9914 18.7636 14.0112 18.6939 14.0171 18.6223C14.0229 18.5507 14.0146 18.4787 13.9926 18.4103C13.9706 18.342 13.9354 18.2786 13.8889 18.2238C13.8424 18.1691 13.7856 18.124 13.7217 18.0913L13.2223 19.0644ZM13.7217 18.0913C12.0286 17.2225 11.3392 16.0706 11.0486 14.7981C10.7423 13.4588 10.8736 12.0231 10.8736 10.4919H9.77982C9.77982 11.8831 9.63919 13.5425 9.98232 15.0419C10.3404 16.6081 11.2236 18.0388 13.2223 19.0644L13.7217 18.0913Z" fill="url(#paint1_radial_387_3419)"/>
        <path d="M13.2223 19.0644C13.3514 19.1306 13.5014 19.1428 13.6395 19.0984C13.7079 19.0764 13.7712 19.0412 13.826 18.9947C13.8807 18.9482 13.9258 18.8914 13.9586 18.8275C13.9914 18.7636 14.0112 18.6939 14.0171 18.6223C14.0229 18.5507 14.0146 18.4787 13.9926 18.4103C13.9706 18.342 13.9354 18.2786 13.8889 18.2238C13.8424 18.1691 13.7856 18.124 13.7217 18.0913L13.2223 19.0644ZM13.7217 18.0913C12.0286 17.2225 11.3392 16.0706 11.0486 14.7981C10.7423 13.4588 10.8736 12.0231 10.8736 10.4919H9.77982C9.77982 11.8831 9.63919 13.5425 9.98232 15.0419C10.3404 16.6081 11.2236 18.0388 13.2223 19.0644L13.7217 18.0913Z" fill="url(#paint2_radial_387_3419)"/>
    </g>
    <path d="M11.6567 14.9C9.90731 13.5781 10.2929 10.4044 10.2929 8.5C12.8323 8.5 14.5667 8.3475 16.2073 9.3825C18.1848 10.63 16.8617 13.2787 14.8992 13.0737C15.2017 14.8119 13.1217 16.0069 11.6567 14.9Z" fill="url(#paint3_linear_387_3419)"/>
    <path d="M11.6567 14.9C9.90731 13.5781 10.2929 10.4044 10.2929 8.5C12.8323 8.5 14.5667 8.3475 16.2073 9.3825C18.1848 10.63 16.8617 13.2787 14.8992 13.0737C15.2017 14.8119 13.1217 16.0069 11.6567 14.9Z" fill="url(#paint4_radial_387_3419)"/>
    <path d="M11.6567 14.9C9.90731 13.5781 10.2929 10.4044 10.2929 8.5C12.8323 8.5 14.5667 8.3475 16.2073 9.3825C18.1848 10.63 16.8617 13.2787 14.8992 13.0737C15.2017 14.8119 13.1217 16.0069 11.6567 14.9Z" fill="url(#paint5_radial_387_3419)"/>
    <path d="M11.6567 14.9C9.90731 13.5781 10.2929 10.4044 10.2929 8.5C12.8323 8.5 14.5667 8.3475 16.2073 9.3825C18.1848 10.63 16.8617 13.2787 14.8992 13.0737C15.2017 14.8119 13.1217 16.0069 11.6567 14.9Z" fill="url(#paint6_radial_387_3419)"/>
    <path d="M11.6567 14.9C9.90731 13.5781 10.2929 10.4044 10.2929 8.5C12.8323 8.5 14.5667 8.3475 16.2073 9.3825C18.1848 10.63 16.8617 13.2787 14.8992 13.0737C15.2017 14.8119 13.1217 16.0069 11.6567 14.9Z" fill="url(#paint7_radial_387_3419)"/>
    <path d="M11.6567 14.9C9.90731 13.5781 10.2929 10.4044 10.2929 8.5C12.8323 8.5 14.5667 8.3475 16.2073 9.3825C18.1848 10.63 16.8617 13.2787 14.8992 13.0737C15.2017 14.8119 13.1217 16.0069 11.6567 14.9Z" fill="url(#paint8_radial_387_3419)"/>
    <path d="M11.6567 14.9C9.90731 13.5781 10.2929 10.4044 10.2929 8.5C12.8323 8.5 14.5667 8.3475 16.2073 9.3825C18.1848 10.63 16.8617 13.2787 14.8992 13.0737C15.2017 14.8119 13.1217 16.0069 11.6567 14.9Z" fill="url(#paint9_radial_387_3419)"/>
    <path d="M11.6567 14.9C9.90731 13.5781 10.2929 10.4044 10.2929 8.5C12.8323 8.5 14.5667 8.3475 16.2073 9.3825C18.1848 10.63 16.8617 13.2787 14.8992 13.0737C15.2017 14.8119 13.1217 16.0069 11.6567 14.9Z" fill="url(#paint10_radial_387_3419)"/>
    <path d="M11.6567 14.9C9.90731 13.5781 10.2929 10.4044 10.2929 8.5C12.8323 8.5 14.5667 8.3475 16.2073 9.3825C18.1848 10.63 16.8617 13.2787 14.8992 13.0737C15.2017 14.8119 13.1217 16.0069 11.6567 14.9Z" fill="url(#paint11_radial_387_3419)"/>
    <g filter="url(#filter1_f_387_3419)">
        <path d="M10.4348 13.3625C10.3629 14.4894 10.8954 17.0812 13.5986 18.4412" stroke="url(#paint12_linear_387_3419)" stroke-width="0.3" stroke-linecap="round"/>
    </g>
    <path d="M10.2929 8.53V8.5C10.5921 8.49958 10.8804 8.49813 11.1579 8.49563C13.2392 8.48063 14.7604 8.46938 16.2079 9.3825C18.1629 10.6163 16.9092 13.2413 14.9023 13.075L10.2929 8.53Z" fill="url(#paint13_linear_387_3419)"/>
    <path d="M10.2929 8.53V8.5C10.5921 8.49958 10.8804 8.49813 11.1579 8.49563C13.2392 8.48063 14.7604 8.46938 16.2079 9.3825C18.1629 10.6163 16.9092 13.2413 14.9023 13.075L10.2929 8.53Z" fill="url(#paint14_radial_387_3419)"/>
    <g filter="url(#filter2_i_387_3419)">
        <path d="M8.95856 14.9C10.7079 13.5775 10.2961 10.4044 10.2961 8.50001C7.75731 8.50001 6.04794 8.34689 4.40731 9.38251C2.43044 10.63 3.75356 13.2788 5.71606 13.0738C5.41356 14.8119 7.49356 16.0069 8.95856 14.9Z" fill="url(#paint15_radial_387_3419)"/>
        <path d="M8.95856 14.9C10.7079 13.5775 10.2961 10.4044 10.2961 8.50001C7.75731 8.50001 6.04794 8.34689 4.40731 9.38251C2.43044 10.63 3.75356 13.2788 5.71606 13.0738C5.41356 14.8119 7.49356 16.0069 8.95856 14.9Z" fill="url(#paint16_radial_387_3419)"/>
        <path d="M8.95856 14.9C10.7079 13.5775 10.2961 10.4044 10.2961 8.50001C7.75731 8.50001 6.04794 8.34689 4.40731 9.38251C2.43044 10.63 3.75356 13.2788 5.71606 13.0738C5.41356 14.8119 7.49356 16.0069 8.95856 14.9Z" fill="url(#paint17_radial_387_3419)"/>
    </g>
    <path d="M8.95856 14.9C10.7079 13.5775 10.2961 10.4044 10.2961 8.50001C7.75731 8.50001 6.04794 8.34689 4.40731 9.38251C2.43044 10.63 3.75356 13.2788 5.71606 13.0738C5.41356 14.8119 7.49356 16.0069 8.95856 14.9Z" fill="url(#paint18_radial_387_3419)"/>
    <path d="M8.95856 14.9C10.7079 13.5775 10.2961 10.4044 10.2961 8.50001C7.75731 8.50001 6.04794 8.34689 4.40731 9.38251C2.43044 10.63 3.75356 13.2788 5.71606 13.0738C5.41356 14.8119 7.49356 16.0069 8.95856 14.9Z" fill="url(#paint19_radial_387_3419)"/>
    <g filter="url(#filter3_f_387_3419)">
        <path d="M6.92856 11.3706L10.1629 8.62936C9.81856 8.69499 8.91231 9.06186 8.21793 9.65186C7.43668 10.3162 6.94668 11.1069 6.92856 11.3706Z" fill="url(#paint20_linear_387_3419)"/>
    </g>
    <g filter="url(#filter4_f_387_3419)">
        <path d="M10.0536 9.14374L7.88606 11.2537L9.77981 12.5625C10.1548 11.1875 10.1192 9.71061 10.0536 9.14374Z" fill="url(#paint21_radial_387_3419)"/>
    </g>
    <g filter="url(#filter5_f_387_3419)">
        <path d="M14.6851 12.5093C15.7022 12.7557 16.696 12.257 16.9047 11.3955C17.1134 10.534 16.458 9.6359 15.4408 9.3895C14.4236 9.1431 13.4299 9.64174 13.2212 10.5032C13.0125 11.3647 13.6679 12.2629 14.6851 12.5093Z" fill="url(#paint22_radial_387_3419)"/>
    </g>
    <g filter="url(#filter6_f_387_3419)">
        <path d="M14.2567 12.5325L10.6592 9.00751C11.0279 9.50751 11.4567 10.0594 12.3492 11.1563C13.1636 12.1569 13.6098 12.4575 14.2567 12.5325Z" fill="url(#paint23_radial_387_3419)"/>
    </g>
    <g filter="url(#filter7_i_387_3419)">
        <path d="M11.6873 2.17187C10.1248 3.48 10.3498 6.615 10.3498 8.51937C12.8886 8.51937 14.5979 8.72437 16.2386 7.68937C18.2154 6.44187 16.8923 3.7925 14.9298 3.9975C15.2323 2.26 13.0954 0.992499 11.6873 2.17187Z" fill="#48D386"/>
        <path d="M11.6873 2.17187C10.1248 3.48 10.3498 6.615 10.3498 8.51937C12.8886 8.51937 14.5979 8.72437 16.2386 7.68937C18.2154 6.44187 16.8923 3.7925 14.9298 3.9975C15.2323 2.26 13.0954 0.992499 11.6873 2.17187Z" fill="url(#paint24_radial_387_3419)"/>
        <path d="M11.6873 2.17187C10.1248 3.48 10.3498 6.615 10.3498 8.51937C12.8886 8.51937 14.5979 8.72437 16.2386 7.68937C18.2154 6.44187 16.8923 3.7925 14.9298 3.9975C15.2323 2.26 13.0954 0.992499 11.6873 2.17187Z" fill="url(#paint25_radial_387_3419)"/>
        <path d="M11.6873 2.17187C10.1248 3.48 10.3498 6.615 10.3498 8.51937C12.8886 8.51937 14.5979 8.72437 16.2386 7.68937C18.2154 6.44187 16.8923 3.7925 14.9298 3.9975C15.2323 2.26 13.0954 0.992499 11.6873 2.17187Z" fill="url(#paint26_radial_387_3419)"/>
        <path d="M11.6873 2.17187C10.1248 3.48 10.3498 6.615 10.3498 8.51937C12.8886 8.51937 14.5979 8.72437 16.2386 7.68937C18.2154 6.44187 16.8923 3.7925 14.9298 3.9975C15.2323 2.26 13.0954 0.992499 11.6873 2.17187Z" fill="url(#paint27_radial_387_3419)" fill-opacity="0.25"/>
        <path d="M11.6873 2.17187C10.1248 3.48 10.3498 6.615 10.3498 8.51937C12.8886 8.51937 14.5979 8.72437 16.2386 7.68937C18.2154 6.44187 16.8923 3.7925 14.9298 3.9975C15.2323 2.26 13.0954 0.992499 11.6873 2.17187Z" fill="url(#paint28_radial_387_3419)"/>
    </g>
    <g filter="url(#filter8_f_387_3419)">
        <path d="M15.4828 6.17309C16.2082 6.25489 16.8314 6.01034 16.8746 5.62686C16.9179 5.24339 16.3648 4.8662 15.6394 4.78439C14.9139 4.70258 14.2908 4.94713 14.2475 5.33061C14.2043 5.71409 14.7573 6.09128 15.4828 6.17309Z" fill="url(#paint29_radial_387_3419)"/>
    </g>
    <g filter="url(#filter9_i_387_3419)">
        <path d="M8.98918 2.17187C10.5517 3.48 10.3267 6.615 10.3267 8.51937C7.78793 8.51937 6.07918 8.72437 4.43856 7.68937C2.46168 6.44187 3.78418 3.7925 5.74731 3.9975C5.44418 2.26 7.58168 0.992499 8.98918 2.17187Z" fill="url(#paint30_linear_387_3419)"/>
        <path d="M8.98918 2.17187C10.5517 3.48 10.3267 6.615 10.3267 8.51937C7.78793 8.51937 6.07918 8.72437 4.43856 7.68937C2.46168 6.44187 3.78418 3.7925 5.74731 3.9975C5.44418 2.26 7.58168 0.992499 8.98918 2.17187Z" fill="url(#paint31_radial_387_3419)"/>
        <path d="M8.98918 2.17187C10.5517 3.48 10.3267 6.615 10.3267 8.51937C7.78793 8.51937 6.07918 8.72437 4.43856 7.68937C2.46168 6.44187 3.78418 3.7925 5.74731 3.9975C5.44418 2.26 7.58168 0.992499 8.98918 2.17187Z" fill="url(#paint32_radial_387_3419)"/>
        <path d="M8.98918 2.17187C10.5517 3.48 10.3267 6.615 10.3267 8.51937C7.78793 8.51937 6.07918 8.72437 4.43856 7.68937C2.46168 6.44187 3.78418 3.7925 5.74731 3.9975C5.44418 2.26 7.58168 0.992499 8.98918 2.17187Z" fill="url(#paint33_radial_387_3419)"/>
        <path d="M8.98918 2.17187C10.5517 3.48 10.3267 6.615 10.3267 8.51937C7.78793 8.51937 6.07918 8.72437 4.43856 7.68937C2.46168 6.44187 3.78418 3.7925 5.74731 3.9975C5.44418 2.26 7.58168 0.992499 8.98918 2.17187Z" fill="url(#paint34_radial_387_3419)"/>
        <path d="M8.98918 2.17187C10.5517 3.48 10.3267 6.615 10.3267 8.51937C7.78793 8.51937 6.07918 8.72437 4.43856 7.68937C2.46168 6.44187 3.78418 3.7925 5.74731 3.9975C5.44418 2.26 7.58168 0.992499 8.98918 2.17187Z" fill="url(#paint35_radial_387_3419)"/>
    </g>
    <g filter="url(#filter10_f_387_3419)">
        <path d="M6.94856 3.96875L10.1123 8.30438C10.1123 7.35688 10.1123 5.6875 9.72168 4.14438C9.47606 3.175 8.79418 1.78125 7.30918 2.15188C6.12168 2.44875 6.71418 3.7925 6.94793 3.96875" fill="url(#paint36_radial_387_3419)"/>
        <path d="M6.94856 3.96875L10.1123 8.30438C10.1123 7.35688 10.1123 5.6875 9.72168 4.14438C9.47606 3.175 8.79418 1.78125 7.30918 2.15188C6.12168 2.44875 6.71418 3.7925 6.94793 3.96875" fill="url(#paint37_radial_387_3419)"/>
    </g>
    <g filter="url(#filter11_f_387_3419)">
        <path d="M6.45544 4.58374L9.75544 8.03124C9.18982 7.74812 8.65232 7.55249 7.77357 6.62499C6.86669 5.66749 6.45544 4.88999 6.45544 4.58374Z" fill="url(#paint38_linear_387_3419)"/>
    </g>
    <g filter="url(#filter12_f_387_3419)">
        <path d="M14.4189 3.477C14.3297 2.75243 13.9469 2.20329 13.5638 2.25047C13.1808 2.29764 12.9427 2.92327 13.0319 3.64785C13.1212 4.37242 13.504 4.92156 13.887 4.87439C14.2701 4.82721 14.5082 4.20158 14.4189 3.477Z" fill="url(#paint39_radial_387_3419)"/>
    </g>
    <defs>
        <filter id="filter0_i_387_3419" x="9.75128" y="10.3419" width="4.41761" height="8.78281" filterUnits="userSpaceOnUse" color-interpolation-filters="sRGB">
            <feFlood flood-opacity="0" result="BackgroundImageFix"/>
            <feBlend mode="normal" in="SourceGraphic" in2="BackgroundImageFix" result="shape"/>
            <feColorMatrix in="SourceAlpha" type="matrix" values="0 0 0 0 0 0 0 0 0 0 0 0 0 0 0 0 0 0 127 0" result="hardAlpha"/>
            <feOffset dx="0.15" dy="-0.15"/>
            <feGaussianBlur stdDeviation="0.5"/>
            <feComposite in2="hardAlpha" operator="arithmetic" k2="-1" k3="1"/>
            <feColorMatrix type="matrix" values="0 0 0 0 0.243137 0 0 0 0 0.380392 0 0 0 0 0.478431 0 0 0 1 0"/>
            <feBlend mode="normal" in2="shape" result="effect1_innerShadow_387_3419"/>
        </filter>
        <filter id="filter1_f_387_3419" x="9.87873" y="12.8125" width="4.26986" height="6.17878" filterUnits="userSpaceOnUse" color-interpolation-filters="sRGB">
            <feFlood flood-opacity="0" result="BackgroundImageFix"/>
            <feBlend mode="normal" in="SourceGraphic" in2="BackgroundImageFix" result="shape"/>
            <feGaussianBlur stdDeviation="0.2" result="effect1_foregroundBlur_387_3419"/>
        </filter>
        <filter id="filter2_i_387_3419" x="3.43025" y="8.49203" width="6.90802" height="6.83575" filterUnits="userSpaceOnUse" color-interpolation-filters="sRGB">
            <feFlood flood-opacity="0" result="BackgroundImageFix"/>
            <feBlend mode="normal" in="SourceGraphic" in2="BackgroundImageFix" result="shape"/>
            <feColorMatrix in="SourceAlpha" type="matrix" values="0 0 0 0 0 0 0 0 0 0 0 0 0 0 0 0 0 0 127 0" result="hardAlpha"/>
            <feOffset/>
            <feGaussianBlur stdDeviation="1"/>
            <feComposite in2="hardAlpha" operator="arithmetic" k2="-1" k3="1"/>
            <feColorMatrix type="matrix" values="0 0 0 0 0.0901961 0 0 0 0 0.576471 0 0 0 0 0.313726 0 0 0 1 0"/>
            <feBlend mode="normal" in2="shape" result="effect1_innerShadow_387_3419"/>
        </filter>
        <filter id="filter3_f_387_3419" x="6.42856" y="8.12936" width="4.23438" height="3.74124" filterUnits="userSpaceOnUse" color-interpolation-filters="sRGB">
            <feFlood flood-opacity="0" result="BackgroundImageFix"/>
            <feBlend mode="normal" in="SourceGraphic" in2="BackgroundImageFix" result="shape"/>
            <feGaussianBlur stdDeviation="0.25" result="effect1_foregroundBlur_387_3419"/>
        </filter>
        <filter id="filter4_f_387_3419" x="7.38606" y="8.64374" width="3.20908" height="4.41876" filterUnits="userSpaceOnUse" color-interpolation-filters="sRGB">
            <feFlood flood-opacity="0" result="BackgroundImageFix"/>
            <feBlend mode="normal" in="SourceGraphic" in2="BackgroundImageFix" result="shape"/>
            <feGaussianBlur stdDeviation="0.25" result="effect1_foregroundBlur_387_3419"/>
        </filter>
        <filter id="filter5_f_387_3419" x="11.9325" y="8.07654" width="6.26094" height="5.7457" filterUnits="userSpaceOnUse" color-interpolation-filters="sRGB">
            <feFlood flood-opacity="0" result="BackgroundImageFix"/>
            <feBlend mode="normal" in="SourceGraphic" in2="BackgroundImageFix" result="shape"/>
            <feGaussianBlur stdDeviation="0.625" result="effect1_foregroundBlur_387_3419"/>
        </filter>
        <filter id="filter6_f_387_3419" x="10.2592" y="8.60751" width="4.3975" height="4.32499" filterUnits="userSpaceOnUse" color-interpolation-filters="sRGB">
            <feFlood flood-opacity="0" result="BackgroundImageFix"/>
            <feBlend mode="normal" in="SourceGraphic" in2="BackgroundImageFix" result="shape"/>
            <feGaussianBlur stdDeviation="0.2" result="effect1_foregroundBlur_387_3419"/>
        </filter>
        <filter id="filter7_i_387_3419" x="10.3386" y="1.4628" width="7.12706" height="7.07309" filterUnits="userSpaceOnUse" color-interpolation-filters="sRGB">
            <feFlood flood-opacity="0" result="BackgroundImageFix"/>
            <feBlend mode="normal" in="SourceGraphic" in2="BackgroundImageFix" result="shape"/>
            <feColorMatrix in="SourceAlpha" type="matrix" values="0 0 0 0 0 0 0 0 0 0 0 0 0 0 0 0 0 0 127 0" result="hardAlpha"/>
            <feOffset dx="0.25" dy="-0.25"/>
            <feGaussianBlur stdDeviation="0.5"/>
            <feComposite in2="hardAlpha" operator="arithmetic" k2="-1" k3="1"/>
            <feColorMatrix type="matrix" values="0 0 0 0 0.227451 0 0 0 0 0.596078 0 0 0 0 0.352941 0 0 0 1 0"/>
            <feBlend mode="normal" in2="shape" result="effect1_innerShadow_387_3419"/>
        </filter>
        <filter id="filter8_f_387_3419" x="13.2451" y="3.76862" width="4.63184" height="3.42023" filterUnits="userSpaceOnUse" color-interpolation-filters="sRGB">
            <feFlood flood-opacity="0" result="BackgroundImageFix"/>
            <feBlend mode="normal" in="SourceGraphic" in2="BackgroundImageFix" result="shape"/>
            <feGaussianBlur stdDeviation="0.5" result="effect1_foregroundBlur_387_3419"/>
        </filter>
        <filter id="filter9_i_387_3419" x="3.46135" y="1.4628" width="7.12659" height="7.07309" filterUnits="userSpaceOnUse" color-interpolation-filters="sRGB">
            <feFlood flood-opacity="0" result="BackgroundImageFix"/>
            <feBlend mode="normal" in="SourceGraphic" in2="BackgroundImageFix" result="shape"/>
            <feColorMatrix in="SourceAlpha" type="matrix" values="0 0 0 0 0 0 0 0 0 0 0 0 0 0 0 0 0 0 127 0" result="hardAlpha"/>
            <feOffset dx="0.25" dy="-0.25"/>
            <feGaussianBlur stdDeviation="0.5"/>
            <feComposite in2="hardAlpha" operator="arithmetic" k2="-1" k3="1"/>
            <feColorMatrix type="matrix" values="0 0 0 0 0.211765 0 0 0 0 0.505882 0 0 0 0 0.407843 0 0 0 1 0"/>
            <feBlend mode="normal" in2="shape" result="effect1_innerShadow_387_3419"/>
        </filter>
        <filter id="filter10_f_387_3419" x="5.84219" y="1.34067" width="5.02011" height="7.71371" filterUnits="userSpaceOnUse" color-interpolation-filters="sRGB">
            <feFlood flood-opacity="0" result="BackgroundImageFix"/>
            <feBlend mode="normal" in="SourceGraphic" in2="BackgroundImageFix" result="shape"/>
            <feGaussianBlur stdDeviation="0.375" result="effect1_foregroundBlur_387_3419"/>
        </filter>
        <filter id="filter11_f_387_3419" x="5.95544" y="4.08374" width="4.3" height="4.44751" filterUnits="userSpaceOnUse" color-interpolation-filters="sRGB">
            <feFlood flood-opacity="0" result="BackgroundImageFix"/>
            <feBlend mode="normal" in="SourceGraphic" in2="BackgroundImageFix" result="shape"/>
            <feGaussianBlur stdDeviation="0.25" result="effect1_foregroundBlur_387_3419"/>
        </filter>
        <filter id="filter12_f_387_3419" x="12.0132" y="1.24765" width="3.4245" height="4.62955" filterUnits="userSpaceOnUse" color-interpolation-filters="sRGB">
            <feFlood flood-opacity="0" result="BackgroundImageFix"/>
            <feBlend mode="normal" in="SourceGraphic" in2="BackgroundImageFix" result="shape"/>
            <feGaussianBlur stdDeviation="0.5" result="effect1_foregroundBlur_387_3419"/>
        </filter>
        <linearGradient id="paint0_linear_387_3419" x1="10.6592" y1="12.1719" x2="13.7842" y2="19.0075" gradientUnits="userSpaceOnUse">
            <stop stop-color="#18554D"/>
            <stop offset="1" stop-color="#509E85"/>
        </linearGradient>
        <radialGradient id="paint1_radial_387_3419" cx="0" cy="0" r="1" gradientUnits="userSpaceOnUse" gradientTransform="translate(14.0673 18.5781) rotate(167.692) scale(0.549748 0.587913)">
            <stop stop-color="#6AAC9A"/>
            <stop offset="1" stop-color="#6AAC9A" stop-opacity="0"/>
        </radialGradient>
        <radialGradient id="paint2_radial_387_3419" cx="0" cy="0" r="1" gradientUnits="userSpaceOnUse" gradientTransform="translate(11.1967 14.4275) rotate(169.611) scale(0.595704 3.46296)">
            <stop stop-color="#557C70"/>
            <stop offset="1" stop-color="#557C70" stop-opacity="0"/>
        </radialGradient>
        <linearGradient id="paint3_linear_387_3419" x1="9.95606" y1="8.73437" x2="14.1748" y2="12.4844" gradientUnits="userSpaceOnUse">
            <stop stop-color="#2C9C60"/>
            <stop offset="1" stop-color="#3CCE7F"/>
        </linearGradient>
        <radialGradient id="paint4_radial_387_3419" cx="0" cy="0" r="1" gradientUnits="userSpaceOnUse" gradientTransform="translate(17.4957 11.7029) rotate(-161.184) scale(5.57117 2.65711)">
            <stop stop-color="#46D282"/>
            <stop offset="1" stop-color="#46D282" stop-opacity="0"/>
        </radialGradient>
        <radialGradient id="paint5_radial_387_3419" cx="0" cy="0" r="1" gradientUnits="userSpaceOnUse" gradientTransform="translate(15.8936 14.7106) rotate(-139.207) scale(2.86992 3.23896)">
            <stop stop-color="#43D592"/>
            <stop offset="1" stop-color="#43D592" stop-opacity="0"/>
        </radialGradient>
        <radialGradient id="paint6_radial_387_3419" cx="0" cy="0" r="1" gradientUnits="userSpaceOnUse" gradientTransform="translate(15.4056 13.7346) rotate(178.075) scale(2.32553 4.38106)">
            <stop stop-color="#45DF94"/>
            <stop offset="1" stop-color="#45DF94" stop-opacity="0"/>
        </radialGradient>
        <radialGradient id="paint7_radial_387_3419" cx="0" cy="0" r="1" gradientUnits="userSpaceOnUse" gradientTransform="translate(10.4642 8.695) rotate(44.627) scale(4.57631 0.506564)">
            <stop stop-color="#249F5C"/>
            <stop offset="1" stop-color="#249F5C" stop-opacity="0"/>
        </radialGradient>
        <radialGradient id="paint8_radial_387_3419" cx="0" cy="0" r="1" gradientUnits="userSpaceOnUse" gradientTransform="translate(13.9012 7.95281) rotate(99.541) scale(1.08929 5.10981)">
            <stop stop-color="#439059"/>
            <stop offset="1" stop-color="#439059" stop-opacity="0"/>
        </radialGradient>
        <radialGradient id="paint9_radial_387_3419" cx="0" cy="0" r="1" gradientUnits="userSpaceOnUse" gradientTransform="translate(15.1907 13.7546) rotate(-179.091) scale(1.23062 1.46652)">
            <stop stop-color="#4DD695"/>
            <stop offset="1" stop-color="#4DD695" stop-opacity="0"/>
        </radialGradient>
        <radialGradient id="paint10_radial_387_3419" cx="0" cy="0" r="1" gradientUnits="userSpaceOnUse" gradientTransform="translate(14.7998 11.0387) rotate(-179.576) scale(5.27358 11.9521)">
            <stop offset="0.624" stop-color="#1D9453" stop-opacity="0"/>
            <stop offset="1" stop-color="#1D9453"/>
        </radialGradient>
        <radialGradient id="paint11_radial_387_3419" cx="0" cy="0" r="1" gradientUnits="userSpaceOnUse" gradientTransform="translate(13.7211 10.375) rotate(103.007) scale(5.53258 4.30383)">
            <stop offset="0.841" stop-color="#438882" stop-opacity="0"/>
            <stop offset="0.969" stop-color="#438882"/>
        </radialGradient>
        <linearGradient id="paint12_linear_387_3419" x1="13.5986" y1="18.3044" x2="10.2979" y2="13.7537" gradientUnits="userSpaceOnUse">
            <stop stop-color="#69AA99"/>
            <stop offset="1" stop-color="#69AA99" stop-opacity="0"/>
        </linearGradient>
        <linearGradient id="paint13_linear_387_3419" x1="9.91731" y1="10.7888" x2="12.0654" y2="9.105" gradientUnits="userSpaceOnUse">
            <stop stop-color="#219756"/>
            <stop offset="1" stop-color="#219756" stop-opacity="0"/>
        </linearGradient>
        <radialGradient id="paint14_radial_387_3419" cx="0" cy="0" r="1" gradientUnits="userSpaceOnUse" gradientTransform="translate(14.5267 9.65188) rotate(88.2643) scale(3.86896 9.20981)">
            <stop offset="0.821" stop-color="#438882" stop-opacity="0"/>
            <stop offset="1" stop-color="#438882"/>
        </radialGradient>
        <radialGradient id="paint15_radial_387_3419" cx="0" cy="0" r="1" gradientUnits="userSpaceOnUse" gradientTransform="translate(8.23727 10.9218) rotate(-47.586) scale(4.28567 4.19242)">
            <stop stop-color="#53CE8D"/>
            <stop offset="1" stop-color="#39B97C"/>
        </radialGradient>
        <radialGradient id="paint16_radial_387_3419" cx="0" cy="0" r="1" gradientUnits="userSpaceOnUse" gradientTransform="translate(8.25669 10.375) rotate(-43.4518) scale(3.06709 0.441405)">
            <stop stop-color="#1FAE5A"/>
            <stop offset="1" stop-color="#1FAE5A" stop-opacity="0"/>
        </radialGradient>
        <radialGradient id="paint17_radial_387_3419" cx="0" cy="0" r="1" gradientUnits="userSpaceOnUse" gradientTransform="translate(10.3386 8.49189) rotate(135.971) scale(4.62005 0.0546716)">
            <stop offset="0.366" stop-color="#6AD392"/>
            <stop offset="1" stop-color="#6AD392" stop-opacity="0"/>
        </radialGradient>
        <radialGradient id="paint18_radial_387_3419" cx="0" cy="0" r="1" gradientUnits="userSpaceOnUse" gradientTransform="translate(4.92231 13.27) rotate(-67.7703) scale(0.606612 0.762134)">
            <stop offset="0.21" stop-color="#718C9F"/>
            <stop offset="1" stop-color="#718C9F" stop-opacity="0"/>
        </radialGradient>
        <radialGradient id="paint19_radial_387_3419" cx="0" cy="0" r="1" gradientUnits="userSpaceOnUse" gradientTransform="translate(6.88481 15.4531) rotate(-70.0161) scale(1.10148 4.12327)">
            <stop stop-color="#718C9F"/>
            <stop offset="1" stop-color="#718C9F" stop-opacity="0"/>
        </radialGradient>
        <linearGradient id="paint20_linear_387_3419" x1="9.78043" y1="9.20311" x2="6.12793" y2="11.2537" gradientUnits="userSpaceOnUse">
            <stop stop-color="#75E2A0"/>
            <stop offset="1" stop-color="#72D79A" stop-opacity="0"/>
        </linearGradient>
        <radialGradient id="paint21_radial_387_3419" cx="0" cy="0" r="1" gradientUnits="userSpaceOnUse" gradientTransform="translate(9.70231 8.89061) rotate(93.1639) scale(3.89265 1.0219)">
            <stop stop-color="#6EE79D"/>
            <stop offset="1" stop-color="#72D79A" stop-opacity="0"/>
        </radialGradient>
        <radialGradient id="paint22_radial_387_3419" cx="0" cy="0" r="1" gradientUnits="userSpaceOnUse" gradientTransform="translate(17.1635 10.7071) rotate(-178.768) scale(3.40521 1.76354)">
            <stop stop-color="#81FFB3"/>
            <stop offset="1" stop-color="#81FFB3" stop-opacity="0"/>
        </radialGradient>
        <radialGradient id="paint23_radial_387_3419" cx="0" cy="0" r="1" gradientUnits="userSpaceOnUse" gradientTransform="translate(12.8329 11.2188) rotate(136.169) scale(0.472198 2.98809)">
            <stop stop-color="#72DDA1"/>
            <stop offset="1" stop-color="#72DDA1" stop-opacity="0"/>
        </radialGradient>
        <radialGradient id="paint24_radial_387_3419" cx="0" cy="0" r="1" gradientUnits="userSpaceOnUse" gradientTransform="translate(14.5967 4.43762) rotate(135) scale(6.62912 6.28187)">
            <stop offset="0.279" stop-color="#188A50" stop-opacity="0"/>
            <stop offset="1" stop-color="#188A50"/>
        </radialGradient>
        <radialGradient id="paint25_radial_387_3419" cx="0" cy="0" r="1" gradientUnits="userSpaceOnUse" gradientTransform="translate(15.6898 3.14812) rotate(133.688) scale(3.61934 3.80696)">
            <stop offset="0.164" stop-color="#75F9A8"/>
            <stop offset="1" stop-color="#75F9A8" stop-opacity="0"/>
        </radialGradient>
        <radialGradient id="paint26_radial_387_3419" cx="0" cy="0" r="1" gradientUnits="userSpaceOnUse" gradientTransform="translate(9.20522 9.78873) rotate(-45) scale(5.52427 3.78412)">
            <stop stop-color="#338B6E"/>
            <stop offset="1" stop-color="#338B6E" stop-opacity="0"/>
        </radialGradient>
        <radialGradient id="paint27_radial_387_3419" cx="0" cy="0" r="1" gradientUnits="userSpaceOnUse" gradientTransform="translate(12.9049 6.0579) rotate(136.672) scale(3.78574 0.557775)">
            <stop stop-color="#309B69"/>
            <stop offset="1" stop-color="#34BB72" stop-opacity="0"/>
        </radialGradient>
        <radialGradient id="paint28_radial_387_3419" cx="0" cy="0" r="1" gradientUnits="userSpaceOnUse" gradientTransform="translate(15.2004 3.64625) rotate(136.695) scale(4.67005 0.105675)">
            <stop stop-color="#79F0AF"/>
            <stop offset="1" stop-color="#79F0AF" stop-opacity="0"/>
        </radialGradient>
        <radialGradient id="paint29_radial_387_3419" cx="0" cy="0" r="1" gradientUnits="userSpaceOnUse" gradientTransform="translate(16.4793 5.47914) rotate(-174.56) scale(1.92273 0.673095)">
            <stop stop-color="#80FFB4"/>
            <stop offset="1" stop-color="#80FFB4" stop-opacity="0"/>
        </radialGradient>
        <linearGradient id="paint30_linear_387_3419" x1="6.89981" y1="3.30437" x2="10.3386" y2="8.92937" gradientUnits="userSpaceOnUse">
            <stop stop-color="#3AC97D"/>
            <stop offset="1" stop-color="#3FAD80"/>
        </linearGradient>
        <radialGradient id="paint31_radial_387_3419" cx="0" cy="0" r="1" gradientUnits="userSpaceOnUse" gradientTransform="translate(5.24932 3.01165) rotate(45) scale(3.39742 4.59324)">
            <stop stop-color="#3BC577"/>
            <stop offset="1" stop-color="#3BC577" stop-opacity="0"/>
        </radialGradient>
        <radialGradient id="paint32_radial_387_3419" cx="0" cy="0" r="1" gradientUnits="userSpaceOnUse" gradientTransform="translate(9.76044 2.73832) rotate(145.105) scale(2.83371 2.75887)">
            <stop stop-color="#5AF095"/>
            <stop offset="1" stop-color="#5AF095" stop-opacity="0"/>
        </radialGradient>
        <radialGradient id="paint33_radial_387_3419" cx="0" cy="0" r="1" gradientUnits="userSpaceOnUse" gradientTransform="translate(10.3392 8.53504) rotate(-134.582) scale(6.19312 0.321944)">
            <stop offset="0.433" stop-color="#3AA578"/>
            <stop offset="1" stop-color="#3AA578" stop-opacity="0"/>
        </radialGradient>
        <radialGradient id="paint34_radial_387_3419" cx="0" cy="0" r="1" gradientUnits="userSpaceOnUse" gradientTransform="translate(10.4248 8.64625) rotate(-134.009) scale(5.98782 0.0321252)">
            <stop offset="0.545" stop-color="#4EB87F"/>
            <stop offset="1" stop-color="#4EB87F" stop-opacity="0"/>
        </radialGradient>
        <radialGradient id="paint35_radial_387_3419" cx="0" cy="0" r="1" gradientUnits="userSpaceOnUse" gradientTransform="translate(6.03043 8.53562) rotate(4.37715) scale(3.8785 1.9879)">
            <stop stop-color="#379876"/>
            <stop offset="1" stop-color="#379876" stop-opacity="0"/>
        </radialGradient>
        <radialGradient id="paint36_radial_387_3419" cx="0" cy="0" r="1" gradientUnits="userSpaceOnUse" gradientTransform="translate(9.76106 5.1975) rotate(152.304) scale(1.38969 6.24025)">
            <stop stop-color="#77E8A3"/>
            <stop offset="1" stop-color="#77E8A3" stop-opacity="0"/>
        </radialGradient>
        <radialGradient id="paint37_radial_387_3419" cx="0" cy="0" r="1" gradientUnits="userSpaceOnUse" gradientTransform="translate(13.6286 5.58938) rotate(-174.24) scale(6.81175 3.32175)">
            <stop stop-color="#77E8A3"/>
            <stop offset="0.999" stop-color="#77E8A3" stop-opacity="0"/>
        </radialGradient>
        <linearGradient id="paint38_linear_387_3419" x1="8.00794" y1="6.73187" x2="8.40857" y2="6.30749" gradientUnits="userSpaceOnUse">
            <stop stop-color="#75D79F"/>
            <stop offset="1" stop-color="#75D79F" stop-opacity="0"/>
        </linearGradient>
        <radialGradient id="paint39_radial_387_3419" cx="0" cy="0" r="1" gradientUnits="userSpaceOnUse" gradientTransform="translate(14.371 4.43757) rotate(-107.078) scale(2.6268 0.919577)">
            <stop stop-color="#80FFB4"/>
            <stop offset="1" stop-color="#80FFB4" stop-opacity="0"/>
        </radialGradient>
    </defs>
</svg>
